<svg xmlns="http://www.w3.org/2000/svg" width="1300" height="700" viewBox="0 0 1300 700">
<rect width="100%" height="100%" fill="#f8fafc"/>
<text x="650.0" y="42" text-anchor="middle" font-size="30" font-family="-apple-system, Segoe UI, Arial" fill="#0f172a" font-weight="700">Daily Orders (Jan 1-31, Defined Operation-Day Method)</text>
<text x="650.0" y="70" text-anchor="middle" font-size="16" font-family="-apple-system, Segoe UI, Arial" fill="#334155">Peak day: 2026-01-05 (4370.00 orders)</text>
<line x1="90" y1="600.00" x2="1250" y2="600.00" stroke="#cbd5e1" stroke-width="1"/>
<text x="80" y="605.00" text-anchor="end" font-size="12" font-family="-apple-system, Segoe UI, Arial" fill="#64748b">0</text>
<line x1="90" y1="543.33" x2="1250" y2="543.33" stroke="#e2e8f0" stroke-width="1"/>
<text x="80" y="548.33" text-anchor="end" font-size="12" font-family="-apple-system, Segoe UI, Arial" fill="#64748b">500</text>
<line x1="90" y1="486.67" x2="1250" y2="486.67" stroke="#e2e8f0" stroke-width="1"/>
<text x="80" y="491.67" text-anchor="end" font-size="12" font-family="-apple-system, Segoe UI, Arial" fill="#64748b">1000</text>
<line x1="90" y1="430.00" x2="1250" y2="430.00" stroke="#e2e8f0" stroke-width="1"/>
<text x="80" y="435.00" text-anchor="end" font-size="12" font-family="-apple-system, Segoe UI, Arial" fill="#64748b">1500</text>
<line x1="90" y1="373.33" x2="1250" y2="373.33" stroke="#e2e8f0" stroke-width="1"/>
<text x="80" y="378.33" text-anchor="end" font-size="12" font-family="-apple-system, Segoe UI, Arial" fill="#64748b">2000</text>
<line x1="90" y1="316.67" x2="1250" y2="316.67" stroke="#e2e8f0" stroke-width="1"/>
<text x="80" y="321.67" text-anchor="end" font-size="12" font-family="-apple-system, Segoe UI, Arial" fill="#64748b">2500</text>
<line x1="90" y1="260.00" x2="1250" y2="260.00" stroke="#e2e8f0" stroke-width="1"/>
<text x="80" y="265.00" text-anchor="end" font-size="12" font-family="-apple-system, Segoe UI, Arial" fill="#64748b">3000</text>
<line x1="90" y1="203.33" x2="1250" y2="203.33" stroke="#e2e8f0" stroke-width="1"/>
<text x="80" y="208.33" text-anchor="end" font-size="12" font-family="-apple-system, Segoe UI, Arial" fill="#64748b">3500</text>
<line x1="90" y1="146.67" x2="1250" y2="146.67" stroke="#e2e8f0" stroke-width="1"/>
<text x="80" y="151.67" text-anchor="end" font-size="12" font-family="-apple-system, Segoe UI, Arial" fill="#64748b">4000</text>
<line x1="90" y1="90.00" x2="1250" y2="90.00" stroke="#e2e8f0" stroke-width="1"/>
<text x="80" y="95.00" text-anchor="end" font-size="12" font-family="-apple-system, Segoe UI, Arial" fill="#64748b">4500</text>
<line x1="90" y1="90" x2="90" y2="600" stroke="#334155" stroke-width="1.5"/>
<line x1="90" y1="600" x2="1250" y2="600" stroke="#334155" stroke-width="1.5"/>
<line x1="90.00" y1="600" x2="90.00" y2="606" stroke="#64748b" stroke-width="1"/>
<text x="90.00" y="624" text-anchor="middle" font-size="11" font-family="-apple-system, Segoe UI, Arial" fill="#475569">1</text>
<line x1="128.67" y1="600" x2="128.67" y2="606" stroke="#64748b" stroke-width="1"/>
<text x="128.67" y="624" text-anchor="middle" font-size="11" font-family="-apple-system, Segoe UI, Arial" fill="#475569">2</text>
<line x1="206.00" y1="600" x2="206.00" y2="606" stroke="#64748b" stroke-width="1"/>
<text x="206.00" y="624" text-anchor="middle" font-size="11" font-family="-apple-system, Segoe UI, Arial" fill="#475569">4</text>
<line x1="244.67" y1="600" x2="244.67" y2="606" stroke="#64748b" stroke-width="1"/>
<text x="244.67" y="624" text-anchor="middle" font-size="11" font-family="-apple-system, Segoe UI, Arial" fill="#475569">5</text>
<line x1="283.33" y1="600" x2="283.33" y2="606" stroke="#64748b" stroke-width="1"/>
<text x="283.33" y="624" text-anchor="middle" font-size="11" font-family="-apple-system, Segoe UI, Arial" fill="#475569">6</text>
<line x1="360.67" y1="600" x2="360.67" y2="606" stroke="#64748b" stroke-width="1"/>
<text x="360.67" y="624" text-anchor="middle" font-size="11" font-family="-apple-system, Segoe UI, Arial" fill="#475569">8</text>
<line x1="438.00" y1="600" x2="438.00" y2="606" stroke="#64748b" stroke-width="1"/>
<text x="438.00" y="624" text-anchor="middle" font-size="11" font-family="-apple-system, Segoe UI, Arial" fill="#475569">10</text>
<line x1="515.33" y1="600" x2="515.33" y2="606" stroke="#64748b" stroke-width="1"/>
<text x="515.33" y="624" text-anchor="middle" font-size="11" font-family="-apple-system, Segoe UI, Arial" fill="#475569">12</text>
<line x1="592.67" y1="600" x2="592.67" y2="606" stroke="#64748b" stroke-width="1"/>
<text x="592.67" y="624" text-anchor="middle" font-size="11" font-family="-apple-system, Segoe UI, Arial" fill="#475569">14</text>
<line x1="670.00" y1="600" x2="670.00" y2="606" stroke="#64748b" stroke-width="1"/>
<text x="670.00" y="624" text-anchor="middle" font-size="11" font-family="-apple-system, Segoe UI, Arial" fill="#475569">16</text>
<line x1="747.33" y1="600" x2="747.33" y2="606" stroke="#64748b" stroke-width="1"/>
<text x="747.33" y="624" text-anchor="middle" font-size="11" font-family="-apple-system, Segoe UI, Arial" fill="#475569">18</text>
<line x1="824.67" y1="600" x2="824.67" y2="606" stroke="#64748b" stroke-width="1"/>
<text x="824.67" y="624" text-anchor="middle" font-size="11" font-family="-apple-system, Segoe UI, Arial" fill="#475569">20</text>
<line x1="902.00" y1="600" x2="902.00" y2="606" stroke="#64748b" stroke-width="1"/>
<text x="902.00" y="624" text-anchor="middle" font-size="11" font-family="-apple-system, Segoe UI, Arial" fill="#475569">22</text>
<line x1="979.33" y1="600" x2="979.33" y2="606" stroke="#64748b" stroke-width="1"/>
<text x="979.33" y="624" text-anchor="middle" font-size="11" font-family="-apple-system, Segoe UI, Arial" fill="#475569">24</text>
<line x1="1056.67" y1="600" x2="1056.67" y2="606" stroke="#64748b" stroke-width="1"/>
<text x="1056.67" y="624" text-anchor="middle" font-size="11" font-family="-apple-system, Segoe UI, Arial" fill="#475569">26</text>
<line x1="1134.00" y1="600" x2="1134.00" y2="606" stroke="#64748b" stroke-width="1"/>
<text x="1134.00" y="624" text-anchor="middle" font-size="11" font-family="-apple-system, Segoe UI, Arial" fill="#475569">28</text>
<line x1="1211.33" y1="600" x2="1211.33" y2="606" stroke="#64748b" stroke-width="1"/>
<text x="1211.33" y="624" text-anchor="middle" font-size="11" font-family="-apple-system, Segoe UI, Arial" fill="#475569">30</text>
<line x1="1250.00" y1="600" x2="1250.00" y2="606" stroke="#64748b" stroke-width="1"/>
<text x="1250.00" y="624" text-anchor="middle" font-size="11" font-family="-apple-system, Segoe UI, Arial" fill="#475569">31</text>
<path d="M 90.00 455.46 L 128.67 400.19 L 167.33 513.75 L 206.00 493.58 L 244.67 104.73 L 283.33 427.96 L 322.00 420.82 L 360.67 453.57 L 399.33 417.53 L 438.00 527.13 L 476.67 545.49 L 515.33 279.49 L 554.00 460.15 L 592.67 468.65 L 631.33 447.57 L 670.00 474.54 L 708.67 510.13 L 747.33 541.07 L 786.00 378.66 L 824.67 405.29 L 863.33 483.49 L 902.00 482.02 L 940.67 468.19 L 979.33 554.10 L 1018.00 550.36 L 1056.67 335.25 L 1095.33 489.39 L 1134.00 460.94 L 1172.67 475.67 L 1211.33 464.68 L 1250.00 527.81" fill="none" stroke="#2563eb" stroke-width="3" stroke-linejoin="round" stroke-linecap="round"/>
<circle cx="90.00" cy="455.46" r="3" fill="#1d4ed8"/>
<circle cx="128.67" cy="400.19" r="3" fill="#1d4ed8"/>
<circle cx="167.33" cy="513.75" r="3" fill="#1d4ed8"/>
<circle cx="206.00" cy="493.58" r="3" fill="#1d4ed8"/>
<circle cx="244.67" cy="104.73" r="6" fill="#ef4444" stroke="#991b1b" stroke-width="1.5"/>
<circle cx="283.33" cy="427.96" r="3" fill="#1d4ed8"/>
<circle cx="322.00" cy="420.82" r="3" fill="#1d4ed8"/>
<circle cx="360.67" cy="453.57" r="3" fill="#1d4ed8"/>
<circle cx="399.33" cy="417.53" r="3" fill="#1d4ed8"/>
<circle cx="438.00" cy="527.13" r="3" fill="#1d4ed8"/>
<circle cx="476.67" cy="545.49" r="3" fill="#1d4ed8"/>
<circle cx="515.33" cy="279.49" r="3" fill="#1d4ed8"/>
<circle cx="554.00" cy="460.15" r="3" fill="#1d4ed8"/>
<circle cx="592.67" cy="468.65" r="3" fill="#1d4ed8"/>
<circle cx="631.33" cy="447.57" r="3" fill="#1d4ed8"/>
<circle cx="670.00" cy="474.54" r="3" fill="#1d4ed8"/>
<circle cx="708.67" cy="510.13" r="3" fill="#1d4ed8"/>
<circle cx="747.33" cy="541.07" r="3" fill="#1d4ed8"/>
<circle cx="786.00" cy="378.66" r="3" fill="#1d4ed8"/>
<circle cx="824.67" cy="405.29" r="3" fill="#1d4ed8"/>
<circle cx="863.33" cy="483.49" r="3" fill="#1d4ed8"/>
<circle cx="902.00" cy="482.02" r="3" fill="#1d4ed8"/>
<circle cx="940.67" cy="468.19" r="3" fill="#1d4ed8"/>
<circle cx="979.33" cy="554.10" r="3" fill="#1d4ed8"/>
<circle cx="1018.00" cy="550.36" r="3" fill="#1d4ed8"/>
<circle cx="1056.67" cy="335.25" r="3" fill="#1d4ed8"/>
<circle cx="1095.33" cy="489.39" r="3" fill="#1d4ed8"/>
<circle cx="1134.00" cy="460.94" r="3" fill="#1d4ed8"/>
<circle cx="1172.67" cy="475.67" r="3" fill="#1d4ed8"/>
<circle cx="1211.33" cy="464.68" r="3" fill="#1d4ed8"/>
<circle cx="1250.00" cy="527.81" r="3" fill="#1d4ed8"/>
<line x1="244.67" y1="104.73" x2="256.67" y2="102.00" stroke="#dc2626" stroke-width="1.5"/>
<rect x="264.67" y="88.00" width="210" height="40" rx="6" fill="#fee2e2" stroke="#fca5a5"/>
<text x="274.67" y="105.00" font-size="12" font-family="-apple-system, Segoe UI, Arial" fill="#7f1d1d">Peak: 2026-01-05 | 4370 orders</text>
<text x="670.0" y="670" text-anchor="middle" font-size="14" font-family="-apple-system, Segoe UI, Arial" fill="#334155">Day of Month (Jan 2026)</text>
<text x="26" y="345.0" transform="rotate(-90,26,345.0)" text-anchor="middle" font-size="14" font-family="-apple-system, Segoe UI, Arial" fill="#334155">Orders per Day</text>
</svg>