<svg xmlns="http://www.w3.org/2000/svg" width="1320" height="760" viewBox="0 0 1320 760">
<rect width="100%" height="100%" fill="#f8fafc"/>
<text x="660.0" y="44" text-anchor="middle" font-size="30" font-family="-apple-system, Segoe UI, Arial" fill="#0f172a" font-weight="700">Staff Allocation Comparison (Jan 1-31)</text>
<text x="660.0" y="72" text-anchor="middle" font-size="15" font-family="-apple-system, Segoe UI, Arial" fill="#334155">Y-axis: Orders | Lines: Incoming vs Total Demanded (4x10h, 6x6-7h)</text>
<text x="95" y="88" font-size="12" font-family="-apple-system, Segoe UI, Arial" fill="#64748b">Assumption: model day-1 total demanded orders initialized from day-1 incoming orders.</text>
<line x1="95" y1="650.00" x2="1260" y2="650.00" stroke="#cbd5e1" stroke-width="1"/>
<text x="85" y="655.00" text-anchor="end" font-size="12" font-family="-apple-system, Segoe UI, Arial" fill="#64748b">0</text>
<line x1="95" y1="588.89" x2="1260" y2="588.89" stroke="#e2e8f0" stroke-width="1"/>
<text x="85" y="593.89" text-anchor="end" font-size="12" font-family="-apple-system, Segoe UI, Arial" fill="#64748b">500</text>
<line x1="95" y1="527.78" x2="1260" y2="527.78" stroke="#e2e8f0" stroke-width="1"/>
<text x="85" y="532.78" text-anchor="end" font-size="12" font-family="-apple-system, Segoe UI, Arial" fill="#64748b">1000</text>
<line x1="95" y1="466.67" x2="1260" y2="466.67" stroke="#e2e8f0" stroke-width="1"/>
<text x="85" y="471.67" text-anchor="end" font-size="12" font-family="-apple-system, Segoe UI, Arial" fill="#64748b">1500</text>
<line x1="95" y1="405.56" x2="1260" y2="405.56" stroke="#e2e8f0" stroke-width="1"/>
<text x="85" y="410.56" text-anchor="end" font-size="12" font-family="-apple-system, Segoe UI, Arial" fill="#64748b">2000</text>
<line x1="95" y1="344.44" x2="1260" y2="344.44" stroke="#e2e8f0" stroke-width="1"/>
<text x="85" y="349.44" text-anchor="end" font-size="12" font-family="-apple-system, Segoe UI, Arial" fill="#64748b">2500</text>
<line x1="95" y1="283.33" x2="1260" y2="283.33" stroke="#e2e8f0" stroke-width="1"/>
<text x="85" y="288.33" text-anchor="end" font-size="12" font-family="-apple-system, Segoe UI, Arial" fill="#64748b">3000</text>
<line x1="95" y1="222.22" x2="1260" y2="222.22" stroke="#e2e8f0" stroke-width="1"/>
<text x="85" y="227.22" text-anchor="end" font-size="12" font-family="-apple-system, Segoe UI, Arial" fill="#64748b">3500</text>
<line x1="95" y1="161.11" x2="1260" y2="161.11" stroke="#e2e8f0" stroke-width="1"/>
<text x="85" y="166.11" text-anchor="end" font-size="12" font-family="-apple-system, Segoe UI, Arial" fill="#64748b">4000</text>
<line x1="95" y1="100.00" x2="1260" y2="100.00" stroke="#e2e8f0" stroke-width="1"/>
<text x="85" y="105.00" text-anchor="end" font-size="12" font-family="-apple-system, Segoe UI, Arial" fill="#64748b">4500</text>
<line x1="95.00" y1="650" x2="95.00" y2="656" stroke="#64748b" stroke-width="1"/>
<text x="95.00" y="674" text-anchor="middle" font-size="11" font-family="-apple-system, Segoe UI, Arial" fill="#475569">1</text>
<line x1="133.83" y1="650" x2="133.83" y2="656" stroke="#64748b" stroke-width="1"/>
<text x="133.83" y="674" text-anchor="middle" font-size="11" font-family="-apple-system, Segoe UI, Arial" fill="#475569">2</text>
<line x1="211.50" y1="650" x2="211.50" y2="656" stroke="#64748b" stroke-width="1"/>
<text x="211.50" y="674" text-anchor="middle" font-size="11" font-family="-apple-system, Segoe UI, Arial" fill="#475569">4</text>
<line x1="289.17" y1="650" x2="289.17" y2="656" stroke="#64748b" stroke-width="1"/>
<text x="289.17" y="674" text-anchor="middle" font-size="11" font-family="-apple-system, Segoe UI, Arial" fill="#475569">6</text>
<line x1="366.83" y1="650" x2="366.83" y2="656" stroke="#64748b" stroke-width="1"/>
<text x="366.83" y="674" text-anchor="middle" font-size="11" font-family="-apple-system, Segoe UI, Arial" fill="#475569">8</text>
<line x1="444.50" y1="650" x2="444.50" y2="656" stroke="#64748b" stroke-width="1"/>
<text x="444.50" y="674" text-anchor="middle" font-size="11" font-family="-apple-system, Segoe UI, Arial" fill="#475569">10</text>
<line x1="522.17" y1="650" x2="522.17" y2="656" stroke="#64748b" stroke-width="1"/>
<text x="522.17" y="674" text-anchor="middle" font-size="11" font-family="-apple-system, Segoe UI, Arial" fill="#475569">12</text>
<line x1="599.83" y1="650" x2="599.83" y2="656" stroke="#64748b" stroke-width="1"/>
<text x="599.83" y="674" text-anchor="middle" font-size="11" font-family="-apple-system, Segoe UI, Arial" fill="#475569">14</text>
<line x1="677.50" y1="650" x2="677.50" y2="656" stroke="#64748b" stroke-width="1"/>
<text x="677.50" y="674" text-anchor="middle" font-size="11" font-family="-apple-system, Segoe UI, Arial" fill="#475569">16</text>
<line x1="755.17" y1="650" x2="755.17" y2="656" stroke="#64748b" stroke-width="1"/>
<text x="755.17" y="674" text-anchor="middle" font-size="11" font-family="-apple-system, Segoe UI, Arial" fill="#475569">18</text>
<line x1="832.83" y1="650" x2="832.83" y2="656" stroke="#64748b" stroke-width="1"/>
<text x="832.83" y="674" text-anchor="middle" font-size="11" font-family="-apple-system, Segoe UI, Arial" fill="#475569">20</text>
<line x1="910.50" y1="650" x2="910.50" y2="656" stroke="#64748b" stroke-width="1"/>
<text x="910.50" y="674" text-anchor="middle" font-size="11" font-family="-apple-system, Segoe UI, Arial" fill="#475569">22</text>
<line x1="988.17" y1="650" x2="988.17" y2="656" stroke="#64748b" stroke-width="1"/>
<text x="988.17" y="674" text-anchor="middle" font-size="11" font-family="-apple-system, Segoe UI, Arial" fill="#475569">24</text>
<line x1="1065.83" y1="650" x2="1065.83" y2="656" stroke="#64748b" stroke-width="1"/>
<text x="1065.83" y="674" text-anchor="middle" font-size="11" font-family="-apple-system, Segoe UI, Arial" fill="#475569">26</text>
<line x1="1143.50" y1="650" x2="1143.50" y2="656" stroke="#64748b" stroke-width="1"/>
<text x="1143.50" y="674" text-anchor="middle" font-size="11" font-family="-apple-system, Segoe UI, Arial" fill="#475569">28</text>
<line x1="1221.17" y1="650" x2="1221.17" y2="656" stroke="#64748b" stroke-width="1"/>
<text x="1221.17" y="674" text-anchor="middle" font-size="11" font-family="-apple-system, Segoe UI, Arial" fill="#475569">30</text>
<line x1="1260.00" y1="650" x2="1260.00" y2="656" stroke="#64748b" stroke-width="1"/>
<text x="1260.00" y="674" text-anchor="middle" font-size="11" font-family="-apple-system, Segoe UI, Arial" fill="#475569">31</text>
<line x1="95" y1="100" x2="95" y2="650" stroke="#334155" stroke-width="1.5"/>
<line x1="95" y1="650" x2="1260" y2="650" stroke="#334155" stroke-width="1.5"/>
<path d="M 95.00 494.13 L 133.83 434.52 L 172.67 556.99 L 211.50 535.23 L 250.33 115.89 L 289.17 464.47 L 328.00 456.77 L 366.83 492.09 L 405.67 453.22 L 444.50 571.41 L 483.33 591.21 L 522.17 304.36 L 561.00 499.18 L 599.83 508.34 L 638.67 485.61 L 677.50 514.70 L 716.33 553.08 L 755.17 586.44 L 794.00 411.30 L 832.83 440.02 L 871.67 524.36 L 910.50 522.77 L 949.33 507.86 L 988.17 600.50 L 1027.00 596.47 L 1065.83 364.49 L 1104.67 530.71 L 1143.50 500.03 L 1182.33 515.92 L 1221.17 504.07 L 1260.00 572.14" fill="none" stroke="#0f766e" stroke-width="3" stroke-linejoin="round" stroke-linecap="round"/>
<path d="M 95.00 494.13 L 133.83 434.52 L 172.67 556.99 L 211.50 535.23 L 250.33 115.89 L 289.17 174.80 L 328.00 226.01 L 366.83 312.54 L 405.67 360.21 L 444.50 526.07 L 483.33 591.21 L 522.17 304.36 L 561.00 397.98 L 599.83 500.77 L 638.67 485.61 L 677.50 514.70 L 716.33 553.08 L 755.17 586.44 L 794.00 411.30 L 832.83 440.02 L 871.67 524.36 L 910.50 522.77 L 949.33 507.86 L 988.17 600.50 L 1027.00 596.47 L 1065.83 364.49 L 1104.67 489.64 L 1143.50 500.03 L 1182.33 515.92 L 1221.17 504.07 L 1260.00 572.14" fill="none" stroke="#dc2626" stroke-width="2.8" stroke-dasharray="7 5" stroke-linejoin="round" stroke-linecap="round"/>
<path d="M 95.00 494.13 L 133.83 434.52 L 172.67 556.99 L 211.50 535.23 L 250.33 115.89 L 289.17 358.13 L 328.00 456.77 L 366.83 492.09 L 405.67 453.22 L 444.50 571.41 L 483.33 591.21 L 522.17 304.36 L 561.00 499.18 L 599.83 508.34 L 638.67 485.61 L 677.50 514.70 L 716.33 553.08 L 755.17 586.44 L 794.00 411.30 L 832.83 440.02 L 871.67 524.36 L 910.50 522.77 L 949.33 507.86 L 988.17 600.50 L 1027.00 596.47 L 1065.83 364.49 L 1104.67 530.71 L 1143.50 500.03 L 1182.33 515.92 L 1221.17 504.07 L 1260.00 572.14" fill="none" stroke="#2563eb" stroke-width="2.8" stroke-dasharray="2 0" stroke-linejoin="round" stroke-linecap="round"/>
<circle cx="250.33" cy="115.89" r="6" fill="#0ea5a3" stroke="#115e59" stroke-width="1.5"/>
<line x1="250.33" y1="115.89" x2="276.33" y2="95.89" stroke="#0f766e" stroke-width="1.5"/>
<rect x="280.33" y="76.89" width="200" height="30" rx="6" fill="#ccfbf1" stroke="#5eead4"/>
<text x="290.33" y="95.89" font-size="12" font-family="-apple-system, Segoe UI, Arial" fill="#134e4a">Incoming Peak: Day 5 (4370)</text>
<text x="677.5" y="726" text-anchor="middle" font-size="14" font-family="-apple-system, Segoe UI, Arial" fill="#334155">Day of Month (Jan 2026)</text>
<text x="28" y="375.0" transform="rotate(-90,28,375.0)" text-anchor="middle" font-size="14" font-family="-apple-system, Segoe UI, Arial" fill="#334155">Orders</text>
<rect x="890" y="110" width="16" height="16" fill="#0f766e"/>
<text x="914" y="123" font-size="13" font-family="-apple-system, Segoe UI, Arial" fill="#334155">Incoming Orders (Day 1-31)</text>
<line x1="890" y1="140" x2="906" y2="140" stroke="#dc2626" stroke-width="2.8" stroke-dasharray="7 5"/>
<text x="914" y="144" font-size="13" font-family="-apple-system, Segoe UI, Arial" fill="#334155">Total Demanded Orders - 4 workers x 10h</text>
<line x1="890" y1="160" x2="906" y2="160" stroke="#2563eb" stroke-width="2.8"/>
<text x="914" y="164" font-size="13" font-family="-apple-system, Segoe UI, Arial" fill="#334155">Total Demanded Orders - 6 workers x 6-7h</text>
</svg>